#!OML:ASF X:\2005_08_12_Meinard\c3d\meinard.ASF
:FULLY-SPECIFIED
:DEGREES
1139
root 2.99348 16.4411 -0.0443317 -23.5705 -73.327 -1.65374
lowerback 37.7481 0.126736 -1.2308
upperback 8.09122 -1.34188 -1.11599
thorax -9.60689 -0.97613 0.0564111
lowerneck -13.0688 -8.12197 -7.23013
upperneck 2.53841 -10.6218 11.9911
head 3.92622 -4.85687 4.0098
rclavicle -4.37326e-015 2.78299e-014
rhumerus -36.0649 7.62268 -85.9509
rradius 78.1724
rwrist -2.56031
rhand -4.09826 -9.41238
rfingers 7.12502
rthumb 21.6596 -38.2209
lclavicle -4.37326e-015 2.78299e-014
lhumerus -30.7726 12.3057 72.1207
lradius 55.7882
lwrist -204.872
lhand -6.39737 5.0642
lfingers 7.12502
lthumb 19.4503 34.1114
rfemur -172.205 -176.306 202.237
rtibia 40.3448
rfoot 157.991 154.343
rtoes -6.51879
lfemur -0.186685 -3.27853 -20.6404
ltibia 59.2153
lfoot -10.5632 14.6542
ltoes 21.2949
1140
root 3.01063 16.427 -0.0182262 -22.6278 -73.5729 -2.25637
lowerback 37.5662 0.135354 -1.16639
upperback 8.0059 -1.28181 -1.03186
thorax -9.63864 -0.944412 0.0871203
lowerneck -12.9798 -8.07762 -7.15894
upperneck 2.41226 -10.567 11.9808
head 3.86424 -4.83651 4.00571
rclavicle -1.16289e-014 8.34896e-015
rhumerus -35.5829 7.76506 -85.9636
rradius 77.6979
rwrist -2.34251
rhand -4.0271 -9.3062
rfingers 7.12502
rthumb 21.7279 -38.1068
lclavicle -1.16289e-014 8.34896e-015
lhumerus -30.9615 11.8994 72.4671
lradius 56.2416
lwrist -204.631
lhand -6.48786 4.96321
lfingers 7.12502
lthumb 19.3633 34.0191
rfemur -172.895 -176.31 202.35
rtibia 40.8055
rfoot 157.886 154.526
rtoes -6.42488
lfemur 0.805143 -3.40759 -20.543
ltibia 57.4041
lfoot -12.4795 15.1622
ltoes 20.9402
1141
root 3.02699 16.4142 0.0053289 -21.6515 -73.777 -2.90699
lowerback 37.3935 0.138358 -1.12247
upperback 7.92178 -1.23576 -0.937126
thorax -9.67126 -0.919071 0.14558
lowerneck -12.9127 -8.03732 -7.12459
upperneck 2.3422 -10.5159 11.9794
head 3.82563 -4.81543 4.00814
rclavicle -8.34896e-015 -8.34896e-015
rhumerus -35.0969 7.92357 -85.9854
rradius 77.218
rwrist -2.12331
rhand -4.06519 -9.21486
rfingers 7.12502
rthumb 21.6914 -38.0197
lclavicle -8.34896e-015 -8.34896e-015
lhumerus -31.1359 11.5105 72.8027
lradius 56.5842
lwrist -204.468
lhand -6.59911 4.91994
lfingers 7.12502
lthumb 19.2563 33.9866
rfemur -173.549 -176.304 202.481
rtibia 41.2312
rfoot 157.776 154.681
rtoes -6.25662
lfemur 1.71381 -3.55635 -20.4536
ltibia 55.7093
lfoot -14.4681 15.5507
ltoes 19.816
1142
root 3.04196 16.4021 0.0262661 -20.6811 -73.9489 -3.56232
lowerback 37.2289 0.138628 -1.11439
upperback 7.83528 -1.20548 -0.830237
thorax -9.70814 -0.90055 0.242228
lowerneck -12.8209 -7.99331 -7.16809
upperneck 2.2807 -10.4528 12.0236
head 3.79152 -4.78783 4.03848
rclavicle 8.64713e-015 8.34896e-015
rhumerus -34.6235 8.09699 -86.0113
rradius 76.7443
rwrist -1.8755
rhand -4.10814 -9.0915
rfingers 7.12502
rthumb 21.6501 -37.9011
lclavicle 8.64713e-015 8.34896e-015
lhumerus -31.3347 11.1345 73.1235
lradius 56.8721
lwrist -204.364
lhand -6.75776 4.75925
lfingers 7.12502
lthumb 19.1038 33.841
rfemur -174.164 -176.284 202.613
rtibia 41.6082
rfoot 157.711 154.824
rtoes -6.05414
lfemur 2.52752 -3.66577 -20.3583
ltibia 54.1495
lfoot -16.3182 15.8766
ltoes 18.6165
1143
root 3.05802 16.3909 0.0453141 -19.6126 -74.1239 -4.36421
lowerback 37.109 0.126754 -1.08082
upperback 7.76371 -1.18342 -0.71597
thorax -9.74415 -0.8875 0.337074
lowerneck -12.7484 -7.94502 -7.23577
upperneck 2.24205 -10.3815 12.0725
head 3.76809 -4.75484 4.07384
rclavicle 1.47101e-014 2.38542e-014
rhumerus -34.1232 8.26309 -86.0628
rradius 76.2435
rwrist -1.62638
rhand -4.17344 -8.94081
rfingers 7.12502
rthumb 21.5874 -37.7576
lclavicle 1.47101e-014 2.38542e-014
lhumerus -31.5328 10.8144 73.4296
lradius 57.1007
lwrist -204.361
lhand -6.92117 4.631
lfingers 7.12502
lthumb 18.9466 33.7282
rfemur -174.705 -176.289 202.801
rtibia 41.9227
rfoot 157.656 154.927
rtoes -5.94991
lfemur 3.26197 -3.72355 -20.2073
ltibia 52.7464
lfoot -17.9606 16.175
ltoes 17.4225
